<svg width="79" height="25" viewBox="0 0 79 25" fill="none" xmlns="http://www.w3.org/2000/svg">
<path id="Ellipse 23" d="M78.5 12.5C78.5 14.6939 77.4885 16.5292 75.5814 18.0722C73.6596 19.6271 70.8429 20.8696 67.2999 21.8299C60.2173 23.7497 50.3958 24.5 39.5 24.5C28.6042 24.5 18.7827 23.7497 11.7001 21.8299C8.15705 20.8696 5.34038 19.6271 3.4186 18.0722C1.51149 16.5292 0.5 14.6939 0.5 12.5C0.5 10.3061 1.51149 8.47077 3.4186 6.92777C5.34038 5.3729 8.15705 4.13043 11.7001 3.17009C18.7827 1.25033 28.6042 0.5 39.5 0.5C50.3958 0.5 60.2173 1.25033 67.2999 3.17009C70.8429 4.13043 73.6596 5.3729 75.5814 6.92777C77.4885 8.47077 78.5 10.3061 78.5 12.5Z" stroke="#9B6109"/>
</svg>
